<svg xmlns="http://www.w3.org/2000/svg" width="20.84" height="20.84" viewBox="0 0 20.84 20.84">
  <g id="Group_31" data-name="Group 31" transform="translate(-633.841 -482.133)">
    <path id="Path_23" data-name="Path 23" d="M644.261,502.973a3.182,3.182,0,0,1-3.178-3.178v-4.064h-4.064a3.178,3.178,0,1,1,0-6.356h4.064v-4.064a3.178,3.178,0,1,1,6.356,0v4.064H651.5a3.178,3.178,0,1,1,0,6.356h-4.064V499.8A3.182,3.182,0,0,1,644.261,502.973Zm-7.242-12.364a1.944,1.944,0,1,0,0,3.889h5.3v5.3a1.944,1.944,0,1,0,3.889,0v-5.3h5.3a1.944,1.944,0,0,0,0-3.889h-5.3v-5.3a1.944,1.944,0,1,0-3.889,0v5.3Z" fill="#0072b4"/>
  </g>
</svg>
