<svg width="93" height="29" viewBox="0 0 93 29" fill="none" xmlns="http://www.w3.org/2000/svg">
<path d="M8.032 8C10.4213 8 12.2133 8.27733 13.408 8.832C14.624 9.38667 15.4667 10.368 15.936 11.776C16.4267 13.1627 16.672 15.2427 16.672 18.016C16.672 20.7893 16.4267 22.8693 15.936 24.256C15.4667 25.6427 14.624 26.6133 13.408 27.168C12.2133 27.7227 10.4213 28 8.032 28H0V8H8.032ZM4.768 24.192H9.056C9.99467 24.192 10.6453 24.0427 11.008 23.744C11.3707 23.424 11.552 22.848 11.552 22.016V13.984C11.552 13.152 11.3707 12.5867 11.008 12.288C10.6453 11.968 9.99467 11.808 9.056 11.808H4.768V24.192Z" fill="#0072B4"/>
<path d="M27.3495 28.384C25.4082 28.384 23.8828 28.1173 22.7735 27.584C21.6642 27.0507 20.8642 26.1867 20.3735 24.992C19.8828 23.776 19.6375 22.112 19.6375 20C19.6375 17.888 19.8828 16.2347 20.3735 15.04C20.8642 13.824 21.6642 12.9493 22.7735 12.416C23.8828 11.8827 25.4082 11.616 27.3495 11.616C29.2908 11.616 30.8055 11.8827 31.8935 12.416C33.0028 12.928 33.8028 13.792 34.2935 15.008C34.7842 16.2027 35.0295 17.8667 35.0295 20C35.0295 22.112 34.7842 23.776 34.2935 24.992C33.8028 26.1867 33.0028 27.0507 31.8935 27.584C30.7842 28.1173 29.2695 28.384 27.3495 28.384ZM28.5975 24.704C29.1308 24.704 29.4935 24.6507 29.6855 24.544C29.8775 24.416 29.9735 24.192 29.9735 23.872V15.296H26.1335C25.6002 15.296 25.2268 15.36 25.0135 15.488C24.8215 15.5947 24.7255 15.808 24.7255 16.128V24.704H28.5975Z" fill="#0072B4"/>
<path d="M38.75 12H41.054L42.302 13.6C44.0087 12.2773 46.0673 11.616 48.478 11.616C49.9713 11.616 51.1233 11.8933 51.934 12.448C52.7447 12.9813 53.15 13.76 53.15 14.784V28H48.382V15.52H45.502C44.7553 15.52 44.2327 15.6267 43.934 15.84C43.6567 16.032 43.518 16.3947 43.518 16.928V28H38.75V12Z" fill="#0072B4"/>
<path d="M64.6048 24.832C66.2261 24.832 68.0927 24.5653 70.2048 24.032L70.8128 27.36C68.8714 28.0427 66.5994 28.384 63.9967 28.384C62.1834 28.384 60.7434 28.1173 59.6768 27.584C58.6314 27.0507 57.8634 26.176 57.3727 24.96C56.9034 23.744 56.6688 22.0907 56.6688 20C56.6688 17.952 56.9141 16.32 57.4048 15.104C57.9168 13.888 58.7167 13.0027 59.8047 12.448C60.9141 11.8933 62.3967 11.616 64.2527 11.616C66.0874 11.616 67.4954 11.7653 68.4768 12.064C69.4794 12.3627 70.1834 12.8747 70.5888 13.6C71.0154 14.3253 71.2288 15.36 71.2288 16.704C71.2288 18.1333 70.9621 19.2107 70.4287 19.936C69.9167 20.6613 68.9994 21.1733 67.6768 21.472C66.3541 21.7493 64.3808 21.888 61.7568 21.888V24.576C62.4181 24.7467 63.3674 24.832 64.6048 24.832ZM64.1888 15.2C63.2501 15.2 62.6101 15.3173 62.2687 15.552C61.9274 15.7653 61.7568 16.1707 61.7568 16.768V19.264H64.4768C65.4154 19.264 66.0554 19.1573 66.3968 18.944C66.7594 18.7093 66.9408 18.2827 66.9408 17.664V15.2H64.1888Z" fill="#0072B4"/>
<path d="M79.9867 11.872V28H75.2188V12.512L79.9867 11.872Z" fill="#0072B4"/>
<path d="M90.068 15.136V24.544C90.7293 24.6507 91.4227 24.7147 92.148 24.736L91.924 27.968C90.5587 28.2453 89.428 28.384 88.532 28.384C87.4227 28.384 86.6013 28.1493 86.068 27.68C85.556 27.2107 85.3 26.4747 85.3 25.472V15.136H83.38V12H85.3V8.992L90.068 7.808V12H92.596V15.136H90.068Z" fill="#0072B4"/>
<path d="M78.7387 10.212C78.5172 10.4336 78.2542 10.6094 77.9648 10.7294C77.6753 10.8494 77.365 10.9111 77.0517 10.9111C76.7384 10.9111 76.4281 10.8494 76.1386 10.7294C75.8492 10.6094 75.5862 10.4336 75.3647 10.212L72.4587 7.25699C72.0113 6.80954 71.76 6.20274 71.76 5.57001C71.76 4.93728 72.0113 4.33044 72.4587 3.883V3.883C72.9061 3.43563 73.513 3.18433 74.1457 3.18433C74.7784 3.18433 75.3852 3.43563 75.8327 3.883L78.7387 6.83801C78.9603 7.0595 79.1361 7.32248 79.2561 7.61194C79.3761 7.9014 79.4378 8.21166 79.4378 8.52499C79.4378 8.83833 79.3761 9.14859 79.2561 9.43805C79.1361 9.72751 78.9603 9.99052 78.7387 10.212V10.212Z" fill="url(#paint0_linear)"/>
<path d="M83.7908 5.06147C84.7226 4.12968 84.7226 2.61895 83.7908 1.68716C82.8591 0.755366 81.3483 0.755366 80.4165 1.68716L75.2815 6.82217C74.3497 7.75396 74.3497 9.26469 75.2815 10.1965C76.2133 11.1283 77.724 11.1283 78.6558 10.1965L83.7908 5.06147Z" fill="url(#paint1_linear)"/>
<defs>
<linearGradient id="paint0_linear" x1="71.3531" y1="2.32665" x2="76.8657" y2="8.38047" gradientUnits="userSpaceOnUse">
<stop stop-color="#0072B4"/>
<stop offset="0.14" stop-color="#0374B5"/>
<stop offset="0.269" stop-color="#0E7BBA"/>
<stop offset="0.394" stop-color="#2187C1"/>
<stop offset="0.516" stop-color="#3B97CC"/>
<stop offset="0.635" stop-color="#5DACDA"/>
<stop offset="0.734" stop-color="#7FC2E8"/>
</linearGradient>
<linearGradient id="paint1_linear" x1="68.3537" y1="4.90249" x2="82.8067" y2="16.0194" gradientUnits="userSpaceOnUse">
<stop offset="0.012" stop-color="#0072B4"/>
<stop offset="0.152" stop-color="#0374B5"/>
<stop offset="0.28" stop-color="#0E7BBA"/>
<stop offset="0.404" stop-color="#2187C1"/>
<stop offset="0.526" stop-color="#3B97CC"/>
<stop offset="0.644" stop-color="#5DACDA"/>
<stop offset="0.742" stop-color="#7FC2E8"/>
</linearGradient>
</defs>
</svg>
