<svg xmlns="http://www.w3.org/2000/svg" width="19.831" height="22.297" viewBox="0 0 19.831 22.297">
  <g id="Group_24" data-name="Group 24" transform="translate(-405.266 -545.802)">
    <g id="Group_24-2" data-name="Group 24" transform="translate(405.266 545.802)">
      <path id="Path_19" data-name="Path 19" d="M424.478,549.011h-4.639v-.756a2.455,2.455,0,0,0-2.452-2.452h-4.41a2.455,2.455,0,0,0-2.452,2.452v.756h-4.639a.619.619,0,1,0,0,1.238H407v14.541a3.314,3.314,0,0,0,3.31,3.31h9.736a3.314,3.314,0,0,0,3.31-3.31V550.249h1.119a.619.619,0,1,0,0-1.238Zm-12.716-.756a1.217,1.217,0,0,1,1.215-1.215h4.41a1.217,1.217,0,0,1,1.215,1.215v.756h-6.839Zm10.36,16.535a2.076,2.076,0,0,1-2.072,2.072h-9.736a2.076,2.076,0,0,1-2.072-2.072V550.249h13.885v14.541Z" transform="translate(-405.266 -545.802)" fill="#1885bd"/>
      <path id="Path_20" data-name="Path 20" d="M450.342,589.851a.616.616,0,0,0,.619-.619V578.295a.619.619,0,0,0-1.238,0v10.933A.62.62,0,0,0,450.342,589.851Z" transform="translate(-440.426 -571.011)" fill="#1885bd"/>
      <path id="Path_21" data-name="Path 21" d="M431.029,591.734a.616.616,0,0,0,.619-.619v-9.576a.619.619,0,1,0-1.238,0v9.576A.619.619,0,0,0,431.029,591.734Z" transform="translate(-425.152 -573.576)" fill="#1885bd"/>
      <path id="Path_22" data-name="Path 22" d="M469.655,591.734a.616.616,0,0,0,.619-.619v-9.576a.619.619,0,1,0-1.238,0v9.576A.616.616,0,0,0,469.655,591.734Z" transform="translate(-455.701 -573.576)" fill="#1885bd"/>
    </g>
  </g>
</svg>
